<mxfile host="app.diagrams.net" agent="Mozilla/5.0 (Windows NT 10.0; Win64; x64) AppleWebKit/537.36 (KHTML, like Gecko) Chrome/129.0.0.0 Safari/537.36" version="24.7.16">
  <diagram name="Страница — 1" id="PpgufdpgcDOQG-fyaqFA">
    <mxGraphModel dx="1434" dy="738" grid="1" gridSize="10" guides="1" tooltips="1" connect="1" arrows="1" fold="1" page="1" pageScale="1" pageWidth="827" pageHeight="1169" math="0" shadow="0">
      <root>
        <mxCell id="0" />
        <mxCell id="1" parent="0" />
        <mxCell id="zrWCrHe6dnwM7bseoquJ-10" style="edgeStyle=orthogonalEdgeStyle;rounded=0;orthogonalLoop=1;jettySize=auto;html=1;entryX=1;entryY=0.5;entryDx=0;entryDy=0;exitX=1;exitY=0.5;exitDx=0;exitDy=0;" parent="1" source="fKN3eB7jo_NmdAirA8d2-1" target="fKN3eB7jo_NmdAirA8d2-2" edge="1">
          <mxGeometry relative="1" as="geometry">
            <Array as="points">
              <mxPoint x="774" y="650" />
              <mxPoint x="774" y="1015" />
            </Array>
          </mxGeometry>
        </mxCell>
        <mxCell id="zrWCrHe6dnwM7bseoquJ-11" style="edgeStyle=orthogonalEdgeStyle;rounded=0;orthogonalLoop=1;jettySize=auto;html=1;exitX=1;exitY=0.25;exitDx=0;exitDy=0;entryX=1;entryY=0.5;entryDx=0;entryDy=0;" parent="1" source="fKN3eB7jo_NmdAirA8d2-1" target="zrWCrHe6dnwM7bseoquJ-1" edge="1">
          <mxGeometry relative="1" as="geometry" />
        </mxCell>
        <mxCell id="fKN3eB7jo_NmdAirA8d2-1" value="" style="rounded=1;whiteSpace=wrap;html=1;" parent="1" vertex="1">
          <mxGeometry x="74" y="560" width="680" height="300" as="geometry" />
        </mxCell>
        <mxCell id="fKN3eB7jo_NmdAirA8d2-2" value="" style="rounded=1;whiteSpace=wrap;html=1;" parent="1" vertex="1">
          <mxGeometry x="74" y="870" width="680" height="290" as="geometry" />
        </mxCell>
        <mxCell id="fKN3eB7jo_NmdAirA8d2-3" value="Activity" style="rounded=0;whiteSpace=wrap;html=1;" parent="1" vertex="1">
          <mxGeometry x="590" y="890" width="120" height="230" as="geometry" />
        </mxCell>
        <mxCell id="fKN3eB7jo_NmdAirA8d2-5" value="Presentation&lt;div&gt;app&lt;/div&gt;" style="text;html=1;align=center;verticalAlign=middle;whiteSpace=wrap;rounded=0;fontStyle=1" parent="1" vertex="1">
          <mxGeometry x="94" y="1120" width="90" height="30" as="geometry" />
        </mxCell>
        <mxCell id="fKN3eB7jo_NmdAirA8d2-7" value="Domain" style="text;html=1;align=center;verticalAlign=middle;whiteSpace=wrap;rounded=0;fontStyle=1" parent="1" vertex="1">
          <mxGeometry x="94" y="820" width="90" height="30" as="geometry" />
        </mxCell>
        <mxCell id="Nr90hOsOgf1muWg4rA2Q-2" style="edgeStyle=orthogonalEdgeStyle;rounded=0;orthogonalLoop=1;jettySize=auto;html=1;entryX=0.25;entryY=0;entryDx=0;entryDy=0;" edge="1" parent="1" source="fKN3eB7jo_NmdAirA8d2-8" target="Nr90hOsOgf1muWg4rA2Q-1">
          <mxGeometry relative="1" as="geometry" />
        </mxCell>
        <mxCell id="fKN3eB7jo_NmdAirA8d2-8" value="GetUser&lt;span style=&quot;background-color: initial;&quot;&gt;UseCase&lt;/span&gt;" style="ellipse;whiteSpace=wrap;html=1;" parent="1" vertex="1">
          <mxGeometry x="144" y="740" width="150" height="80" as="geometry" />
        </mxCell>
        <mxCell id="Nr90hOsOgf1muWg4rA2Q-3" style="edgeStyle=orthogonalEdgeStyle;rounded=0;orthogonalLoop=1;jettySize=auto;html=1;" edge="1" parent="1" source="fKN3eB7jo_NmdAirA8d2-9" target="Nr90hOsOgf1muWg4rA2Q-1">
          <mxGeometry relative="1" as="geometry">
            <Array as="points">
              <mxPoint x="370" y="780" />
            </Array>
          </mxGeometry>
        </mxCell>
        <mxCell id="fKN3eB7jo_NmdAirA8d2-9" value="SaveUserUseCase" style="ellipse;whiteSpace=wrap;html=1;" parent="1" vertex="1">
          <mxGeometry x="424" y="740" width="160" height="80" as="geometry" />
        </mxCell>
        <mxCell id="zrWCrHe6dnwM7bseoquJ-9" style="edgeStyle=orthogonalEdgeStyle;rounded=0;orthogonalLoop=1;jettySize=auto;html=1;entryX=0;entryY=0.5;entryDx=0;entryDy=0;" parent="1" source="zrWCrHe6dnwM7bseoquJ-1" target="fKN3eB7jo_NmdAirA8d2-2" edge="1">
          <mxGeometry relative="1" as="geometry">
            <mxPoint x="20" y="1050" as="targetPoint" />
            <Array as="points">
              <mxPoint x="54" y="500" />
              <mxPoint x="54" y="1015" />
            </Array>
          </mxGeometry>
        </mxCell>
        <mxCell id="zrWCrHe6dnwM7bseoquJ-1" value="" style="rounded=1;whiteSpace=wrap;html=1;" parent="1" vertex="1">
          <mxGeometry x="74" y="210" width="680" height="330" as="geometry" />
        </mxCell>
        <mxCell id="zrWCrHe6dnwM7bseoquJ-2" value="Data" style="text;html=1;align=center;verticalAlign=middle;whiteSpace=wrap;rounded=0;fontStyle=1" parent="1" vertex="1">
          <mxGeometry x="94" y="490" width="90" height="30" as="geometry" />
        </mxCell>
        <mxCell id="zrWCrHe6dnwM7bseoquJ-3" value="User Repository&lt;div&gt;Implementation&lt;/div&gt;" style="rounded=1;whiteSpace=wrap;html=1;" parent="1" vertex="1">
          <mxGeometry x="94" y="270" width="120" height="60" as="geometry" />
        </mxCell>
        <mxCell id="zrWCrHe6dnwM7bseoquJ-4" value="User model" style="rounded=1;whiteSpace=wrap;html=1;" parent="1" vertex="1">
          <mxGeometry x="570" y="585" width="120" height="60" as="geometry" />
        </mxCell>
        <mxCell id="zrWCrHe6dnwM7bseoquJ-7" style="edgeStyle=orthogonalEdgeStyle;rounded=0;orthogonalLoop=1;jettySize=auto;html=1;entryX=0.5;entryY=0;entryDx=0;entryDy=0;" parent="1" source="zrWCrHe6dnwM7bseoquJ-6" target="fKN3eB7jo_NmdAirA8d2-8" edge="1">
          <mxGeometry relative="1" as="geometry" />
        </mxCell>
        <mxCell id="Nr90hOsOgf1muWg4rA2Q-4" style="edgeStyle=orthogonalEdgeStyle;rounded=0;orthogonalLoop=1;jettySize=auto;html=1;exitX=1;exitY=0.5;exitDx=0;exitDy=0;" edge="1" parent="1" source="zrWCrHe6dnwM7bseoquJ-6" target="fKN3eB7jo_NmdAirA8d2-9">
          <mxGeometry relative="1" as="geometry">
            <Array as="points">
              <mxPoint x="504" y="680" />
            </Array>
          </mxGeometry>
        </mxCell>
        <mxCell id="zrWCrHe6dnwM7bseoquJ-6" value="User Repository interface" style="rounded=1;whiteSpace=wrap;html=1;" parent="1" vertex="1">
          <mxGeometry x="304" y="650" width="120" height="60" as="geometry" />
        </mxCell>
        <mxCell id="zrWCrHe6dnwM7bseoquJ-16" value="" style="rounded=1;whiteSpace=wrap;html=1;" parent="1" vertex="1">
          <mxGeometry x="240" y="230" width="380" height="230" as="geometry" />
        </mxCell>
        <mxCell id="zrWCrHe6dnwM7bseoquJ-14" style="edgeStyle=orthogonalEdgeStyle;rounded=0;orthogonalLoop=1;jettySize=auto;html=1;" parent="1" source="zrWCrHe6dnwM7bseoquJ-12" target="zrWCrHe6dnwM7bseoquJ-3" edge="1">
          <mxGeometry relative="1" as="geometry" />
        </mxCell>
        <mxCell id="zrWCrHe6dnwM7bseoquJ-12" value="User Storage&lt;div&gt;inteface&lt;/div&gt;" style="rounded=1;whiteSpace=wrap;html=1;" parent="1" vertex="1">
          <mxGeometry x="264" y="270" width="120" height="60" as="geometry" />
        </mxCell>
        <mxCell id="zrWCrHe6dnwM7bseoquJ-15" style="edgeStyle=orthogonalEdgeStyle;rounded=0;orthogonalLoop=1;jettySize=auto;html=1;" parent="1" source="zrWCrHe6dnwM7bseoquJ-13" target="zrWCrHe6dnwM7bseoquJ-12" edge="1">
          <mxGeometry relative="1" as="geometry" />
        </mxCell>
        <mxCell id="zrWCrHe6dnwM7bseoquJ-13" value="User Storage&lt;div&gt;implementation&lt;/div&gt;" style="rounded=1;whiteSpace=wrap;html=1;" parent="1" vertex="1">
          <mxGeometry x="464" y="270" width="120" height="60" as="geometry" />
        </mxCell>
        <mxCell id="zrWCrHe6dnwM7bseoquJ-17" value="Storage" style="text;html=1;align=center;verticalAlign=middle;whiteSpace=wrap;rounded=0;fontStyle=1" parent="1" vertex="1">
          <mxGeometry x="250" y="420" width="90" height="30" as="geometry" />
        </mxCell>
        <mxCell id="zrWCrHe6dnwM7bseoquJ-18" value="User model" style="rounded=1;whiteSpace=wrap;html=1;" parent="1" vertex="1">
          <mxGeometry x="464" y="370" width="120" height="60" as="geometry" />
        </mxCell>
        <mxCell id="Nr90hOsOgf1muWg4rA2Q-1" value="ViewModel" style="rounded=0;whiteSpace=wrap;html=1;" vertex="1" parent="1">
          <mxGeometry x="310" y="900" width="120" height="60" as="geometry" />
        </mxCell>
        <mxCell id="Nr90hOsOgf1muWg4rA2Q-5" style="edgeStyle=orthogonalEdgeStyle;rounded=0;orthogonalLoop=1;jettySize=auto;html=1;entryX=0.017;entryY=0.174;entryDx=0;entryDy=0;entryPerimeter=0;" edge="1" parent="1" source="Nr90hOsOgf1muWg4rA2Q-1" target="fKN3eB7jo_NmdAirA8d2-3">
          <mxGeometry relative="1" as="geometry" />
        </mxCell>
      </root>
    </mxGraphModel>
  </diagram>
</mxfile>
